# xmcd
#
# Track frame offsets: 
#        150
#        13657
#        27882
#        43615
#        56587
#        71872
#        84397
#        125100
#        144340
#        157702
#        184562
#        207695
#        230137
#        246195
#
# Disc length: 3424 seconds
#
# Revision: 3
# Processed by: cddbd v1.5.1PL2 Copyright (c) Steve Scherf et al.
# Submitted via: ExactAudioCopy v0.95b4
#
DISCID=c30d5e0e
DTITLE=The Meters - Kickback
DYEAR=2001
DGENRE=
TTITLE0=Big Chief
TTITLE1=Come Together
TTITLE2=Hang 'em High
TTITLE3=What More Can I Do
TTITLE4=Keep On Marching
TTITLE5=Jambalaya
TTITLE6=Down By The River
TTITLE7=Honky Tonk Woman
TTITLE8=He Bite Me
TTITLE9=Easy (Trip)
TTITLE10=Rock And Roll Medley
TTITLE11=All I Do Everyday
TTITLE12=Love The One You're With
TTITLE13=A Mother's Love
EXTD=
EXTT0=
EXTT1=
EXTT2=
EXTT3=
EXTT4=
EXTT5=
EXTT6=
EXTT7=
EXTT8=
EXTT9=
EXTT10=
EXTT11=
EXTT12=
EXTT13=
PLAYORDER=
